<svg width="266" height="139" viewBox="0 0 266 139" fill="none" xmlns="http://www.w3.org/2000/svg">
<path fill-rule="evenodd" clip-rule="evenodd" d="M244.976 0.0141449H50.8416H50.1632V0.0248748C38.8567 0.383017 29.8009 9.66139 29.8009 21.0549C29.8009 32.0547 38.2418 41.0831 48.9996 42.0161V42.2206C58.6147 43.574 66.1431 51.4262 66.9998 61.1921V64.9177C66.2571 73.3837 60.5005 80.4116 52.7172 83.0141H27.5C12.3122 83.0141 0 95.3263 0 110.514C0 125.702 12.3122 138.014 27.5 138.014H244.975C256.587 138.014 266 128.601 266 116.99V83.0141H266V42.0956H266V21.0387C266 9.42718 256.587 0.0141449 244.976 0.0141449Z" fill="#E51A3D"/>
</svg>
